# xmcd
#
# Track frame offsets: 
#        183
#        20063
#        31630
#        44845
#        56130
#        74095
#        88645
#        100475
#        114843
#        135833
#        150745
#
# Disc length: 2148 seconds
#
# Revision: 2
# Processed by: cddbd v1.5.2PL0 Copyright (c) Steve Scherf et al.
# Submitted via: ExactAudioCopy v0.99pb5
#
DISCID=9308620b
DTITLE=The Statler Brothers - The Statler Brothers Live And Sold Out
DYEAR=1989
DGENRE=Country
TTITLE0=The Official Historian On Shirley Jean Berrell
TTITLE1=A Hurt I Can't Handle
TTITLE2=Bed Of Rose's
TTITLE3=Foggy Mountain Breakdown
TTITLE4=When The Roll Is Called Up Yonder
TTITLE5=I'll Fly Away
TTITLE6=Walking Heartache In Disguise
TTITLE7=Tomorrow Never Comes
TTITLE8=Don't Wait On Me
TTITLE9=I'll Go To My Grave Loving You
TTITLE10=This Ole House
EXTD=
EXTT0=
EXTT1=
EXTT2=
EXTT3=
EXTT4=
EXTT5=
EXTT6=
EXTT7=
EXTT8=
EXTT9=
EXTT10=
PLAYORDER=
